<svg xmlns="http://www.w3.org/2000/svg" width="48" height="48" viewBox="0 0 48 48"><defs><style>.a{fill:#ff5f00;}.b{fill:#fff;}</style></defs><g transform="translate(-370 -288)"><rect class="a" width="48" height="48" rx="4" transform="translate(370 288)"/><path class="b" d="M7936.667-2542h-23.333a2.228,2.228,0,0,1-2.333-2.1v-4.2a1.564,1.564,0,0,1,.823-1.4,2.769,2.769,0,0,0,2.288-2.8c0-1.645-1.631-2.506-2.333-2.8a1.251,1.251,0,0,1-.777-1.4v-4.2a2.228,2.228,0,0,1,2.333-2.1h23.333a2.228,2.228,0,0,1,2.333,2.1v4.2a1.3,1.3,0,0,1-.779,1.4c-1.788.861-2.333,1.515-2.333,2.8s.589,1.991,2.333,2.8a1.37,1.37,0,0,1,.779,1.4v4.2A2.228,2.228,0,0,1,7936.667-2542Zm-16.858-8.958a.811.811,0,0,0-.809.811.811.811,0,0,0,.809.811h3.883v2.951a.811.811,0,0,0,.809.811.81.81,0,0,0,.807-.811v-2.951h3.885a.811.811,0,0,0,.809-.811.811.811,0,0,0-.809-.811h-3.885v-2.526h3.885a.811.811,0,0,0,.809-.811.811.811,0,0,0-.809-.811h-9.384a.811.811,0,0,0-.809.811.811.811,0,0,0,.809.811h3.883v2.526Zm8.215-8.041a.8.8,0,0,0-.574.239l-1.586,1.6a.8.8,0,0,0-.235.574.8.8,0,0,0,.239.572.8.8,0,0,0,.568.235.8.8,0,0,0,.574-.239l1.586-1.6a.8.8,0,0,0,.235-.573.8.8,0,0,0-.239-.572A.8.8,0,0,0,7928.024-2559Zm-7.048,0a.8.8,0,0,0-.571.236.813.813,0,0,0,0,1.146l1.586,1.6a.806.806,0,0,0,.574.239.807.807,0,0,0,.568-.235.8.8,0,0,0,.241-.572.8.8,0,0,0-.235-.574l-1.586-1.6A.8.8,0,0,0,7920.976-2559Z" transform="translate(-7531 2864)"/></g></svg>