<svg xmlns="http://www.w3.org/2000/svg" width="48" height="48" viewBox="0 0 48 48"><defs><style>.a{fill:#ff5f00;}.b{fill:#fff;}</style></defs><g transform="translate(-740 -287)"><rect class="a" width="48" height="48" rx="4" transform="translate(740 287)"/><path class="b" d="M7933.669-2542h-20.333a2.228,2.228,0,0,1-2.333-2.1c-.005-3.388,0-8.159,0-11.643v-2.009c0-1.118,0-2.179,0-3.146a2.228,2.228,0,0,1,2.333-2.1h20.333c.681,0,2.073,2.129,3.15,4.239,1.007,1.974,2.183,4.825,2.183,6.365C7939-2549.314,7934.973-2542,7933.669-2542Zm-7.254-16a.824.824,0,0,0-.841.5l-5.967,10a1.26,1.26,0,0,0-.14.626c.045.372.376.624.982.749a1.056,1.056,0,0,0,.773-.375h0c.009-.009.021-.02.037-.034l.034-.029,6.035-10.064a1.013,1.013,0,0,0,.141-.5A1.085,1.085,0,0,0,7926.415-2558Zm.141,6.687a2.692,2.692,0,0,0-2.737,2.626,2.516,2.516,0,0,0,2.737,2.437,2.608,2.608,0,0,0,2.808-2.437,2.789,2.789,0,0,0-2.808-2.626Zm-6.318-6.561a2.668,2.668,0,0,0-2.737,2.562,2.617,2.617,0,0,0,2.737,2.562,2.708,2.708,0,0,0,2.808-2.562,2.763,2.763,0,0,0-2.808-2.562Zm6.318,10.125a.82.82,0,0,1-.912-.938.988.988,0,0,1,.912-1,1.024,1.024,0,0,1,.982,1A.891.891,0,0,1,7926.556-2547.749Zm-6.318-6.627a.82.82,0,0,1-.913-.937.857.857,0,0,1,.913-.938.94.94,0,0,1,.984.938A.893.893,0,0,1,7920.238-2554.376Z" transform="translate(-7161.002 2864)"/></g></svg>