<svg xmlns="http://www.w3.org/2000/svg" width="48" height="48" viewBox="0 0 48 48"><defs><style>.a{fill:#ff5f00;}.b{fill:#fff;}</style></defs><g transform="translate(-1110 -288)"><rect class="a" width="48" height="48" rx="4" transform="translate(1110 288)"/><path class="b" d="M2540-2230.045h-8v-13.99h10v11.99A2,2,0,0,1,2540-2230.045Zm-10,0h-8a2,2,0,0,1-2-2v-11.99h10v13.989Zm12-14.989h-10v-6h10a2,2,0,0,1,2,2v2A2,2,0,0,1,2542-2245.034Zm-12,0h-10a2,2,0,0,1-2-2v-2a2,2,0,0,1,2-2h10v5.995Zm-2.055-6.982c-1.364,0-3.374,0-5.812-.012H2522a4.411,4.411,0,0,1,1.01-2.785,3.155,3.155,0,0,1,2.37-1.219,2.9,2.9,0,0,1,1.787.656c2.415,1.863,2.83,3.333,2.833,3.348C2529.987-2252.02,2529.334-2252.016,2527.945-2252.016Zm6.109-.013c-1.367,0-2.039,0-2.054-.012.018-.064.479-1.534,2.833-3.349a2.9,2.9,0,0,1,1.787-.655,3.155,3.155,0,0,1,2.37,1.219,4.41,4.41,0,0,1,1.01,2.784h-.016l-.725,0C2538.12-2252.036,2535.749-2252.03,2534.054-2252.03Z" transform="translate(-1397 2555.045)"/></g></svg>