<svg xmlns="http://www.w3.org/2000/svg" xmlns:xlink="http://www.w3.org/1999/xlink" width="453.266" height="101" viewBox="0 0 453.266 101"><defs><style>.a{font-size:70px;font-family:SourceHanSansSC-Regular, Source Han Sans SC;}.b{fill:#221714;}.c{clip-path:url(#a);}.d{fill:#fff;}.e{fill:#231815;}</style><clipPath id="a"><circle cx="44.48" cy="44.48" r="44.48" transform="translate(1568.68 2219.06)"/></clipPath></defs><g transform="translate(-1568.68 -2207.125)"><text class="a" transform="translate(1680.946 2288.125)"><tspan x="0" y="0">大白鲸APP</tspan></text><circle class="b" cx="44.48" cy="44.48" r="44.48" transform="translate(1568.68 2219.06)"/><g class="c"><path class="d" d="M1641.01,2256.3c-11.45-6.49-17.18-5.69-22.28-7.39-3.79-1.26-4.83-6.95-3.79-10.49a4.725,4.725,0,1,0-3.55,0c1.04,3.54-.01,9.23-3.79,10.49-5.1,1.7-10.83.89-22.28,7.39s-17.34,17.65-16.56,31.82,6.43,32.12,9.95,40.77,13.11,29.71,15.85,35.14,2.66,5.82,2.63,7.86-3.01,6.17-6.25,8.54-7.81,3.82-5.17,6.29,15.53,1.6,21.48-4.97c3.72-4.1,4.6-5.06,5.92-5.06s2.2.96,5.92,5.06c5.95,6.57,18.84,7.45,21.48,4.97s-1.92-3.92-5.17-6.29-6.21-6.49-6.25-8.54-.11-2.44,2.63-7.86,12.33-26.49,15.85-35.14,9.17-26.6,9.95-40.77S1652.46,2262.79,1641.01,2256.3Z"/><ellipse class="e" cx="2" cy="3.56" rx="2" ry="3.56" transform="translate(1583.31 2265.95)"/><path class="e" d="M1650.71,2278.5c-2.09,3.13-3.24,3.98-5.38,3.98-1.42,0-3.02-.74-5.24-1.78-4.7-2.19-12.56-5.85-26.94-5.85s-22.24,3.66-26.94,5.85c-2.21,1.03-3.82,1.78-5.24,1.78-2.14,0-3.29-.86-5.38-3.98a.833.833,0,0,1,.23-1.15.845.845,0,0,1,1.16.23c1.97,2.96,2.69,3.25,4,3.25,1.05,0,2.51-.68,4.54-1.62,4.82-2.25,12.89-6.01,27.64-6.01s22.82,3.76,27.64,6.01c2.02.94,3.48,1.62,4.54,1.62,1.3,0,2.03-.29,4-3.25a.835.835,0,0,1,1.15-.23A.824.824,0,0,1,1650.71,2278.5Z"/><ellipse class="e" cx="2" cy="3.56" rx="2" ry="3.56" transform="translate(1639.01 2265.95)"/></g><path class="b" d="M1657.64,2263.54a44.48,44.48,0,0,1-88.96,0c0-.27,0-.53.01-.8.43,23.33,20.17,42.12,44.47,42.12s44.04-18.79,44.47-42.12C1657.64,2263.01,1657.64,2263.27,1657.64,2263.54Z"/></g></svg>