<svg xmlns="http://www.w3.org/2000/svg" width="297.36" height="131" viewBox="0 0 297.36 131"><defs><style>.a{fill:#221714;}.a,.b{fill-rule:evenodd;}.b{fill:#c8161d;}</style></defs><g transform="translate(-1746.22 -638.83)"><path class="a" d="M1861.9,693.83c.43.55.73,5.81.79,6.94l-.06,7.46a.54.54,0,0,0-.03.1.417.417,0,0,1-.04.1c.38,1.21-.7,7.45-1,8.94a69.3,69.3,0,0,1-8.17,21.87c.71,1.09,1.81,2.22,2.55,3.33,1.23,1.45,2.19,2.84,3.37,4.31a48.34,48.34,0,0,1,3.35,4.44c.58-.31,1.25-1.61,1.64-2.22a72.253,72.253,0,0,0,4.2-7.41,97.767,97.767,0,0,0,4.49-10.87,83.707,83.707,0,0,0-4.45-63.74,90.466,90.466,0,0,0-5.46-9.39l-.26-.29-1.22,1.45c-1.14,1.46-7.86,9.95-8.19,10.58l2.78,5.39c.87,1.83,1.69,3.81,2.43,5.82C1859.42,682.77,1862.12,691.61,1861.9,693.83Z"/><path class="a" d="M1808.07,769.83h7.27c.52-.22,5.24-.46,6.31-.59,2.05-.25,3.9-.56,5.84-.9a83.01,83.01,0,0,0,20.5-6.73c1.47-.74,3.09-1.5,4.45-2.3.74-.44,3.9-2.37,4.26-2.42l.2-.22c.4-.36,1.41-.79,1.8-1.33-.7-.78-3.36-2.45-3.69-3.07-.43-.09-.28-.09-.69-.41-.31-.24-.37-.17-.53-.53-.56-.2-4.29-3.24-5.3-4.01-.31-.24-.51-.41-.83-.66-.38-.3-.52-.31-.81-.75a10.765,10.765,0,0,0-1.94.99c-.55.28-1.17.64-1.8.95-1.22.6-2.42,1.2-3.74,1.76a69.5,69.5,0,0,1-47.06,2.95,68.135,68.135,0,0,1-11.9-4.71l-3.61-1.91-10.55,8.2a12.645,12.645,0,0,0-1.46,1.19l1.08.82a85.218,85.218,0,0,0,7.99,4.62,83.256,83.256,0,0,0,27.67,8.41C1802.63,769.32,1807.57,769.6,1808.07,769.83Z"/><path class="a" d="M1780.52,660.84c.56-.63,5.85-2.74,7.12-3.2,7.82-2.83,18.23-4.93,26.79-4.27,11.96.93,18.6,2.51,28.84,7.53l3.45,1.8a16.424,16.424,0,0,0,1.49-1.15c1.25-.98,10.01-7.71,10.49-8.24-.57-.89-8.19-4.98-9.21-5.51a82.83,82.83,0,0,0-32.09-8.77c-.7-.04-2.99-.06-3.46-.2h-4.81c-.69.23-5.49.36-6.82.54-2.11.29-4.37.55-6.38.96a84.741,84.741,0,0,0-30.65,12.55l-.48.43,12.01,9.39C1777.96,662.33,1779.29,661.17,1780.52,660.84Z"/><path class="a" d="M1746.22,701.74v5.99c.21.51.48,5.55.61,6.65,1.6,13.45,5.94,24.6,13.05,35.78l.82,1.09a28.142,28.142,0,0,0,2.35-2.92l7.06-9.1c-.49-1.12-1.27-2.37-1.92-3.61-.63-1.19-1.23-2.46-1.77-3.73a69.657,69.657,0,0,1-2.97-46.88,67.453,67.453,0,0,1,5.64-13.69c.3-.58.77-1.29,1.01-1.89-.62-1.02-3.36-4.36-4.42-5.73l-1.32-1.68c-.15-.26-.08-.06-.13-.3l-.54-.54c-.17-.22-.22-.31-.43-.57a40,40,0,0,0-2.58-3.2,38.127,38.127,0,0,0-2.93,4.47,83.336,83.336,0,0,0-11.03,33.17C1746.63,696.15,1746.39,701.25,1746.22,701.74Z"/><path class="a" d="M1808.17,714.3a13.858,13.858,0,0,1-.75-1.94,13.544,13.544,0,0,0-.79-1.71,17.21,17.21,0,0,0-2.04-2.96c-3.43-4.07-7.11-5.97-11.77-8.44a48.539,48.539,0,0,1-6.4-3.59,6.428,6.428,0,0,1-2.36-2.79,5.564,5.564,0,0,1,.49-4.2c1.15-2.09,3.94-3,6.99-3.13a21.824,21.824,0,0,1,8.68,1.44,17.332,17.332,0,0,1,4.82,2.67c.22.16,1.27,1.05,1.28,1.06.17-1.64.02-7.29.03-9.66.01-1.49-.04-1.43-1.08-2.11-4.49-2.94-9.22-2.93-9.75-3.3a39.17,39.17,0,0,1-3.97-.09c-7.53.07-14.85,3.29-17.82,10.64a15.188,15.188,0,0,0,1.17,13.37c4.6,7.01,13.35,8.3,19.53,13.06a7.35,7.35,0,0,1,.86,11.12c-3.09,2.7-9.31,1.86-13.19.33a23.216,23.216,0,0,1-5.21-2.9c-1.52-1.1-3.9-3.79-4.17-3.85V730c8.83,7.06,27.38,9.21,33.68-2.64C1810.06,720.46,1808.01,715.57,1808.17,714.3Z"/><path class="a" d="M1829.49,675.72a56.981,56.981,0,0,0-14.68,3.6l-.02,56.75,11.26.05.01-48.1c.01-.69-.01-.28.17-.43.45-.71,5.38-1.42,6.1-1.49,11.7-1.19,18.05,4.32,18.51,4.42l.01-10.99a24.447,24.447,0,0,0-9.35-3.52A40.957,40.957,0,0,0,1829.49,675.72Z"/><path class="a" d="M1965.1,694.93c3.4-.4,6.39.33,6.12,3.97-.25,3.42-2.76,3.96-6.14,3.87l.02-7.84Zm15.81,23.88c-.15-.35-7.43-11.04-7.9-12.47a8.97,8.97,0,0,0,4.08-3.17,9.447,9.447,0,0,0,1.15-5.99c-.5-4.27-3.17-6.37-7.4-7.07a119.255,119.255,0,0,0-12.86-.16l-.02,28.78,7.1.04.01-10.6,1.83-.15c1.15,2.27,2.98,5.08,4.47,7.91a22.357,22.357,0,0,0,1.43,2.81Z"/><path class="a" d="M1941.79,695.35c3.95-.32,7.85-.12,7.68,4.17a3.936,3.936,0,0,1-2.42,3.58,13.647,13.647,0,0,1-5.3.65l.04-8.4Zm-7.14,23.38,7.28.04.06-9.05a27.038,27.038,0,0,0,6.03-.76,12.279,12.279,0,0,0,4.59-2.28c4.36-3.4,5.95-14.94-4.5-16.58a124.006,124.006,0,0,0-13.47-.17Z"/><path class="a" d="M1890.23,718.81l18.02-.08-.03-5.56-10.98-.01.05-6.76,9.59-.02-.01-5.12-9.62-.01.01-6.13,10.99-.02v-5.21l-17.97.02Z"/><path class="a" d="M1912.98,713.04c-.02.46-2.33,4.28-2.84,5.73l6.89-.01,4.35-7.28c.95,1.04,3.62,6.92,4.37,7.29l7.12-.02-8.15-14.45c-.11-.46,6.18-11.21,7.01-12.67a11.42,11.42,0,0,0,.96-1.75l-7.31.02-4,6.96a69.206,69.206,0,0,1-3.82-6.81c-.78-.36-6.23-.24-7.52-.14,1.57,3.06,4.65,8.02,6.62,11.59,1.88,3.39,1.79,2.02-.33,5.82l-2.43,4.32A5.219,5.219,0,0,1,1912.98,713.04Z"/><path class="a" d="M2000.15,718.77a32.928,32.928,0,0,0,.07-5.46l-10.94-.05a38.439,38.439,0,0,1,.02-6.87c.76-.29,8-.02,9.57-.11v-4.92l-9.54-.01a28.633,28.633,0,0,1-.04-6.35l10.97-.01a31.837,31.837,0,0,0-.09-5.11l-17.77.02.01,28.86Z"/><path class="a" d="M2010.01,689.41a2.157,2.157,0,0,1-1.03.19c-.61.57-5.97,1.62-5.78,8.54.12,4.31,3.36,6.32,6.48,7.7,1.6.7,3.61,1.45,4.6,2.52a2.933,2.933,0,0,1-.51,4.66c-2.2,1.39-6.05.83-8.53-.61-1.02-.59-1.62-1.28-2.14-1.37.29,1.02.03,4.92.1,6.34a15.337,15.337,0,0,0,3.41,1.17c5.84,1.26,13.9.29,15.32-6.6.97-4.71-1.07-6.67-1.23-7.46a11.681,11.681,0,0,0-5.12-3.41c-1.67-.64-4.73-1.85-5.29-3.2a2.542,2.542,0,0,1,.98-2.97c1.83-1.29,4.82-.64,6.79.2,1.08.46,2.3,1.42,2.66,1.54l-.03-5.93C2017.15,688.98,2014.29,688.92,2010.01,689.41Z"/><path class="a" d="M2026.23,702.71l.46.35c2.93,2.72,6.63,3.48,7.32,4.22,3.4,1.06,3.67,5.45-.4,6.36a10.235,10.235,0,0,1-5.23-.41,9.924,9.924,0,0,1-2.91-1.59,2.257,2.257,0,0,0-.89-.56l.04,6.48a23.419,23.419,0,0,1,2.72.83c5.04,1.38,13.08.91,15.44-4.81.32-.76.51-2.14.8-2.74v-2.41c-.25-.52-.34-1.39-.55-1.98-1.73-4.64-6.23-5.03-9.87-7.11-2.91-1.66-1.69-4.91,1.55-5.12a10.269,10.269,0,0,1,5.91,1.51,10.788,10.788,0,0,0,1.47.9l-.04-5.94c-5.7-2.7-15.91-2.62-17.3,5.23a9.616,9.616,0,0,0,.07,3.89,6.955,6.955,0,0,0,.59,1.53A12.588,12.588,0,0,1,2026.23,702.71Z"/><path class="b" d="M1832.11,707.85a10.465,10.465,0,0,0,1.55,2.48c.17.18.19.19.38.38l.28.37c1.12.4,2.97,2.2,6.46,1.12,2.34-.73,3.07-1.94,4.06-3.44l.29-.31c.01-.69.45-1.57.48-2.68.02-1.14-.31-1.86-.33-2.67-.5-.45-.76-2.26-3.28-3.6a7.022,7.022,0,0,0-5.68-.39,6.617,6.617,0,0,0-3.69,3.17C1831.53,704.38,1831.69,705.43,1832.11,707.85Z"/></g></svg>