<svg xmlns="http://www.w3.org/2000/svg" xmlns:xlink="http://www.w3.org/1999/xlink" width="667.51" height="131.707" viewBox="0 0 667.51 131.707"><defs><style>.a{fill:#040000;}.b{fill:url(#a);}.c{fill:url(#b);}.d{fill:url(#c);}</style><linearGradient id="a" x1="0.191" y1="1.055" x2="0.809" y2="0.27" gradientUnits="objectBoundingBox"><stop offset="0.028" stop-color="#040000" stop-opacity="0"/><stop offset="0.436" stop-color="#040000"/></linearGradient><linearGradient id="b" x1="0.099" y1="1.555" x2="0.875" y2="0.108" gradientUnits="objectBoundingBox"><stop offset="0.034" stop-color="#040000" stop-opacity="0"/><stop offset="0.436" stop-color="#040000"/></linearGradient><linearGradient id="c" x1="0.1" y1="1.56" x2="0.875" y2="0.111" xlink:href="#b"/></defs><g transform="translate(-89.79 -638.473)"><path class="a" d="M503.6,668.83H427.19v-5.3H459V642.41h12.8v21.12h31.8v5.3Zm-32.8-.7-28.04,48.16H429.03l28.54-48.16Zm-11.22-.47h13.47l29.46,48.63H488.87Z"/><path class="a" d="M537.92,670.94l-16.57,45.35h-12.3l16.99-45.35Zm17.24-29.38L524.7,669.22H509.47l31.05-27.66Zm-5.53,63.74H537.91l-8.12-21.43h11.8Zm-6.78-63.74h14.9l30.21,27.66H572.98Zm29.71,29.38-13.73,45.35H546.86l13.81-45.35Zm-7.69,16.91h11.72l10.96,28.44H575.58Z"/><path class="a" d="M604.87,647.95l-4.35,25.48h-8.45l4.44-25.48Zm20.76,39.04-31.38,6.16v-5.69l31.38-6.16ZM619.18,664v52.52H608.3V664h-9.46l.59-5.22h8.87V641.79h10.88v16.99h6.44V664Zm13.81-.86h8.7l-7.45,52.52H625.7Zm5.44-1.48h-11.3l5.86-19.4h11.3Zm20.59-7.32H636l1.17-5.22h28.96a5.175,5.175,0,0,1,3.64,1.44,4.584,4.584,0,0,1,1.55,3.47v62.26H654.83v-5.53h5.94V655.98C660.78,654.88,660.19,654.34,659.02,654.34Zm-3.68,8.8-6.78,52.52h-8.87l7.03-52.52Z"/><path class="a" d="M677.93,716.37l6.19-27.98h11.05l-6.19,27.98Zm6.61-53.93-4.85-17.92h11.05l4.85,17.92Zm-.33,22.21-4.52-18.08h11.13l4.44,18.08Zm15.9-31.09v-5.38h20.67v-6.23h12.8v6.23h19.67v5.38Zm0,62.96,5.11-36.55h10.55l-5.02,36.55Zm1.42-38.1-1.17-5.84,42.52-2.81,1.42,5.69Zm1.43-2.11,7.7-22.75h11.8l-7.28,21.9Zm18.49,40.21V679.97H732v36.55Zm19.33-38.1-7.53-19.25h11.72l7.36,19.25Zm-2.67,38.1V679.97h10.63v30.94h7.11v5.61Z"/><path class="a" d="M430.5,753.51V728.55h4.78l10.63,17.61h-2.53l10.45-17.61h4.74l.07,24.96h-5.42l-.04-16.65h1l-8.34,14.01h-2.6l-8.52-14.01h1.21v16.65Z"/><path class="a" d="M462.7,753.51l11.12-24.96h5.7l11.16,24.96h-6.06l-9.13-22.03h2.28l-9.16,22.03Zm5.56-5.35,1.53-4.39h12.84l1.57,4.39Z"/><path class="a" d="M502.91,753.93a20.517,20.517,0,0,1-5.74-.8,13.276,13.276,0,0,1-4.42-2.09l1.96-4.35a14.48,14.48,0,0,0,3.8,1.87,13.865,13.865,0,0,0,4.44.73,9.08,9.08,0,0,0,2.76-.34,3.283,3.283,0,0,0,1.55-.94,2.137,2.137,0,0,0,.5-1.39,1.9,1.9,0,0,0-.78-1.59,6.434,6.434,0,0,0-2.07-.96c-.86-.25-1.8-.49-2.83-.71s-2.07-.5-3.1-.84a13.044,13.044,0,0,1-2.83-1.28,6.268,6.268,0,0,1-2.09-2.07,6.153,6.153,0,0,1-.8-3.28,6.947,6.947,0,0,1,1.16-3.9,7.914,7.914,0,0,1,3.49-2.82,14.34,14.34,0,0,1,5.87-1.05,19.626,19.626,0,0,1,4.64.55,13.4,13.4,0,0,1,4.03,1.66l-1.78,4.39a15.1,15.1,0,0,0-3.49-1.48,12.936,12.936,0,0,0-3.42-.48,8.183,8.183,0,0,0-2.75.39,3.211,3.211,0,0,0-1.53,1.02,2.358,2.358,0,0,0-.46,1.44,1.848,1.848,0,0,0,.78,1.55,6.228,6.228,0,0,0,2.07.95c.86.24,1.8.48,2.83.71s2.07.51,3.1.82a12.091,12.091,0,0,1,2.83,1.25,6.268,6.268,0,0,1,2.09,2.07,6.077,6.077,0,0,1,.8,3.24,6.7,6.7,0,0,1-1.18,3.85,8.246,8.246,0,0,1-3.51,2.82A14.381,14.381,0,0,1,502.91,753.93Z"/><path class="a" d="M527.09,753.93a20.517,20.517,0,0,1-5.74-.8,13.275,13.275,0,0,1-4.42-2.09l1.96-4.35a14.48,14.48,0,0,0,3.8,1.87,13.865,13.865,0,0,0,4.44.73,9.08,9.08,0,0,0,2.76-.34,3.283,3.283,0,0,0,1.55-.94,2.137,2.137,0,0,0,.5-1.39,1.9,1.9,0,0,0-.78-1.59,6.435,6.435,0,0,0-2.07-.96c-.86-.25-1.8-.49-2.83-.71s-2.07-.5-3.1-.84a13.045,13.045,0,0,1-2.83-1.28,6.268,6.268,0,0,1-2.09-2.07,6.152,6.152,0,0,1-.8-3.28,6.947,6.947,0,0,1,1.16-3.9,7.914,7.914,0,0,1,3.49-2.82,14.34,14.34,0,0,1,5.87-1.05,19.626,19.626,0,0,1,4.64.55,13.4,13.4,0,0,1,4.03,1.66l-1.78,4.39a14.916,14.916,0,0,0-3.49-1.48,12.935,12.935,0,0,0-3.42-.48,8.183,8.183,0,0,0-2.75.39,3.211,3.211,0,0,0-1.53,1.02,2.358,2.358,0,0,0-.46,1.44,1.848,1.848,0,0,0,.78,1.55,6.228,6.228,0,0,0,2.07.95c.86.24,1.8.48,2.83.71s2.07.51,3.1.82a12.092,12.092,0,0,1,2.83,1.25,6.268,6.268,0,0,1,2.09,2.07,6.077,6.077,0,0,1,.8,3.24,6.7,6.7,0,0,1-1.18,3.85,8.246,8.246,0,0,1-3.51,2.82A14.413,14.413,0,0,1,527.09,753.93Z"/><path class="a" d="M554.58,753.51V728.55h5.78V748.8h12.52v4.71Z"/><path class="a" d="M589.23,753.93a15.188,15.188,0,0,1-5.47-.96,12.759,12.759,0,0,1-4.35-2.71,12.4,12.4,0,0,1-2.85-4.1,13.41,13.41,0,0,1,0-10.26,12.162,12.162,0,0,1,2.87-4.1,13.321,13.321,0,0,1,4.35-2.71,15.836,15.836,0,0,1,10.86,0,13.036,13.036,0,0,1,4.31,2.71,12.732,12.732,0,0,1,2.87,4.08,12.567,12.567,0,0,1,1.03,5.15,12.736,12.736,0,0,1-1.03,5.15,12.391,12.391,0,0,1-2.87,4.1,13.151,13.151,0,0,1-4.31,2.69A14.9,14.9,0,0,1,589.23,753.93Zm-.03-4.92a8.118,8.118,0,0,0,3.08-.57,7.442,7.442,0,0,0,4.14-4.17,9.191,9.191,0,0,0,0-6.48,7.621,7.621,0,0,0-1.64-2.53,7.21,7.21,0,0,0-2.48-1.64,8.3,8.3,0,0,0-3.1-.57,8.082,8.082,0,0,0-3.08.57,7.4,7.4,0,0,0-2.48,1.64,7.516,7.516,0,0,0-1.66,2.53,9.163,9.163,0,0,0,0,6.47,7.509,7.509,0,0,0,1.64,2.55,7.21,7.21,0,0,0,2.48,1.64A8.456,8.456,0,0,0,589.2,749.01Z"/><path class="a" d="M620.68,753.93a15.38,15.38,0,0,1-5.44-.94,12.829,12.829,0,0,1-4.31-2.69,12.4,12.4,0,0,1-2.85-4.1,13.612,13.612,0,0,1,0-10.34,12.162,12.162,0,0,1,2.87-4.1,13.107,13.107,0,0,1,4.35-2.69,16.558,16.558,0,0,1,11.46.17,11.861,11.861,0,0,1,4.47,3.21l-3.71,3.42a8.97,8.97,0,0,0-2.96-2.12,8.735,8.735,0,0,0-3.49-.7,9.292,9.292,0,0,0-3.32.57,7.316,7.316,0,0,0-4.27,4.17,9.109,9.109,0,0,0,0,6.45,7.551,7.551,0,0,0,1.68,2.55,7.165,7.165,0,0,0,2.57,1.66,9,9,0,0,0,3.26.57,10.2,10.2,0,0,0,3.33-.55,9.746,9.746,0,0,0,3.16-1.87l3.28,4.17a14.915,14.915,0,0,1-4.72,2.35A18.445,18.445,0,0,1,620.68,753.93Zm4.82-3.92v-9.38h5.28v10.13Z"/><path class="a" d="M637.55,753.51V728.55h5.78v24.96Z"/><path class="a" d="M658.87,753.93a20.517,20.517,0,0,1-5.74-.8,13.275,13.275,0,0,1-4.42-2.09l1.96-4.35a14.48,14.48,0,0,0,3.8,1.87,13.865,13.865,0,0,0,4.44.73,9.08,9.08,0,0,0,2.76-.34,3.283,3.283,0,0,0,1.55-.94,2.137,2.137,0,0,0,.5-1.39,1.9,1.9,0,0,0-.78-1.59,6.435,6.435,0,0,0-2.07-.96c-.86-.25-1.8-.49-2.83-.71s-2.07-.5-3.1-.84a13.045,13.045,0,0,1-2.83-1.28,6.268,6.268,0,0,1-2.09-2.07,6.152,6.152,0,0,1-.8-3.28,6.947,6.947,0,0,1,1.16-3.9,7.914,7.914,0,0,1,3.49-2.82,14.34,14.34,0,0,1,5.87-1.05,19.626,19.626,0,0,1,4.64.55,13.4,13.4,0,0,1,4.03,1.66l-1.78,4.39a15.1,15.1,0,0,0-3.49-1.48,12.879,12.879,0,0,0-3.42-.48,8.183,8.183,0,0,0-2.75.39,3.211,3.211,0,0,0-1.53,1.02,2.358,2.358,0,0,0-.46,1.44,1.848,1.848,0,0,0,.78,1.55,6.228,6.228,0,0,0,2.07.95c.86.24,1.8.48,2.83.71s2.07.51,3.1.82a12.092,12.092,0,0,1,2.83,1.25,6.268,6.268,0,0,1,2.09,2.07,6.077,6.077,0,0,1,.8,3.24,6.7,6.7,0,0,1-1.18,3.85,8.246,8.246,0,0,1-3.51,2.82A14.413,14.413,0,0,1,658.87,753.93Z"/><path class="a" d="M679.66,753.51V733.26h-7.99v-4.71h21.75v4.71h-7.99v20.25Z"/><path class="a" d="M697.95,753.51V728.55h5.78v24.96Z"/><path class="a" d="M723.01,753.93a15.189,15.189,0,0,1-5.37-.94,12.785,12.785,0,0,1-4.3-2.69,12.2,12.2,0,0,1-2.83-4.1,13.612,13.612,0,0,1,0-10.34,12.4,12.4,0,0,1,2.85-4.1,12.884,12.884,0,0,1,4.3-2.69,15.906,15.906,0,0,1,11.25.18,11.422,11.422,0,0,1,4.4,3.3l-3.71,3.42a8.728,8.728,0,0,0-2.85-2.19,7.983,7.983,0,0,0-3.42-.73,8.806,8.806,0,0,0-3.21.57,7.229,7.229,0,0,0-2.53,1.64,7.516,7.516,0,0,0-1.66,2.53,9.191,9.191,0,0,0,0,6.48,7.331,7.331,0,0,0,4.19,4.17,8.729,8.729,0,0,0,3.21.57,7.92,7.92,0,0,0,3.42-.73,8.406,8.406,0,0,0,2.85-2.23l3.71,3.42a11.646,11.646,0,0,1-4.4,3.32A14.614,14.614,0,0,1,723.01,753.93Z"/><path class="a" d="M746.69,753.93a20.517,20.517,0,0,1-5.74-.8,13.275,13.275,0,0,1-4.42-2.09l1.96-4.35a14.48,14.48,0,0,0,3.8,1.87,13.865,13.865,0,0,0,4.44.73,9.08,9.08,0,0,0,2.76-.34,3.283,3.283,0,0,0,1.55-.94,2.137,2.137,0,0,0,.5-1.39,1.9,1.9,0,0,0-.78-1.59,6.435,6.435,0,0,0-2.07-.96c-.86-.25-1.8-.49-2.83-.71s-2.07-.5-3.1-.84a13.045,13.045,0,0,1-2.83-1.28,6.268,6.268,0,0,1-2.09-2.07,6.152,6.152,0,0,1-.8-3.28,6.947,6.947,0,0,1,1.16-3.9,7.914,7.914,0,0,1,3.49-2.82,14.34,14.34,0,0,1,5.87-1.05,19.626,19.626,0,0,1,4.64.55,13.4,13.4,0,0,1,4.03,1.66l-1.78,4.39a15.1,15.1,0,0,0-3.49-1.48,12.879,12.879,0,0,0-3.42-.48,8.183,8.183,0,0,0-2.75.39,3.211,3.211,0,0,0-1.53,1.02,2.358,2.358,0,0,0-.46,1.44,1.848,1.848,0,0,0,.78,1.55,6.228,6.228,0,0,0,2.07.95c.86.24,1.8.48,2.83.71s2.07.51,3.1.82a12.092,12.092,0,0,1,2.83,1.25,6.268,6.268,0,0,1,2.09,2.07,6.077,6.077,0,0,1,.8,3.24,6.7,6.7,0,0,1-1.18,3.85,8.246,8.246,0,0,1-3.51,2.82A14.446,14.446,0,0,1,746.69,753.93Z"/><path class="b" d="M422.91,756.99H386.87l-31.98-37.2a14.028,14.028,0,0,0-15.61-3.97l-33.43,12.64-8.6-10.01,41.64-15.73a43.037,43.037,0,0,1,47.84,12.19Z"/><path class="c" d="M355.69,693.98H319.67l-30.65-35.64a14.036,14.036,0,0,0-15.61-3.99L133.67,707.23V693.98l139.35-52.73a43.028,43.028,0,0,1,47.84,12.21Z"/><path class="d" d="M317.27,756.99H281.23l-31.98-37.2a14.028,14.028,0,0,0-15.61-3.97L89.95,770.18h-.16v-13.2L233.24,702.7a43.032,43.032,0,0,1,47.84,12.19Z"/></g></svg>