<svg xmlns="http://www.w3.org/2000/svg" width="48" height="48" viewBox="0 0 48 48"><defs><style>.a{fill:#ff5f00;}.b{fill:#fff;}</style></defs><g transform="translate(-370 -424)"><rect class="a" width="48" height="48" rx="4" transform="translate(370 424)"/><path class="b" d="M7923.688-2537.648a12.754,12.754,0,0,1-6.257-1.644,12.671,12.671,0,0,1-4.733-4.694,12.6,12.6,0,0,1-1.264-9.618,12.592,12.592,0,0,1,5.905-7.7,12.672,12.672,0,0,1,6.324-1.7,12.765,12.765,0,0,1,6.1,1.56,12.663,12.663,0,0,1,4.694,4.458l.183.311a.885.885,0,0,1-.343,1.155.883.883,0,0,1-.446.121.888.888,0,0,1-.731-.384,10.949,10.949,0,0,0-9.457-5.456,10.909,10.909,0,0,0-5.447,1.464,10.839,10.839,0,0,0-5.083,6.623,10.836,10.836,0,0,0,1.091,8.278,10.947,10.947,0,0,0,9.456,5.455,10.9,10.9,0,0,0,5.444-1.463,10.808,10.808,0,0,0,4.294-4.55l.169-.355-1.36-.605a.341.341,0,0,1-.12-.094l-.042-.066a.227.227,0,0,1-.018-.052,9.414,9.414,0,0,1-8.544,5.5,9.363,9.363,0,0,1-2.958-.48,9.373,9.373,0,0,1-6.217-10.9,9.413,9.413,0,0,1,3.3-5.331,9.411,9.411,0,0,1,5.865-2.066,9.532,9.532,0,0,1,1.01.054,9.367,9.367,0,0,1,8.386,9.332,9.35,9.35,0,0,1-.683,3.524l.016-.012,3.259-1.524a.317.317,0,0,1,.136-.03.34.34,0,0,1,.134.028.323.323,0,0,1,.178.2l1.049,3.442a.321.321,0,0,1-.1.337.321.321,0,0,1-.214.082.32.32,0,0,1-.132-.028l-1.337-.6-.187.392a12.566,12.566,0,0,1-5.006,5.324A12.676,12.676,0,0,1,7923.688-2537.648Zm-4.48-11.322a.709.709,0,0,0-.707.709.709.709,0,0,0,.707.709h3.395v2.58a.709.709,0,0,0,.707.709.709.709,0,0,0,.707-.709v-2.58h3.4a.708.708,0,0,0,.706-.709.708.708,0,0,0-.706-.709h-3.4v-2.207h3.4a.708.708,0,0,0,.706-.709.708.708,0,0,0-.706-.709h-8.2a.709.709,0,0,0-.707.709.709.709,0,0,0,.707.709h3.395v2.207Zm7.181-7.029a.7.7,0,0,0-.5.209l-1.387,1.4a.7.7,0,0,0-.205.5.7.7,0,0,0,.209.5.708.708,0,0,0,.5.207.7.7,0,0,0,.5-.211l1.389-1.4a.71.71,0,0,0,0-1A.7.7,0,0,0,7926.389-2556Zm-6.162,0a.7.7,0,0,0-.5.206.705.705,0,0,0-.209.5.7.7,0,0,0,.205.5l1.386,1.4a.707.707,0,0,0,.5.211.706.706,0,0,0,.5-.207.7.7,0,0,0,.209-.5.7.7,0,0,0-.206-.5l-1.384-1.4A.7.7,0,0,0,7920.227-2556Z" transform="translate(-7530 2998)"/></g></svg>